<svg width="24" height="24" xmlns="http://www.w3.org/2000/svg"><path d="M16.5 5.5H18A1.5 1.5 0 0 1 19.5 7v13a1.5 1.5 0 0 1-1.5 1.5H5A1.5 1.5 0 0 1 3.5 20V7A1.5 1.5 0 0 1 5 5.5h1.5V5A1.5 1.5 0 0 1 8 3.5h1.767a2 2 0 0 1 3.466 0H15A1.5 1.5 0 0 1 16.5 5v.5zm-9.915 1H5a.5.5 0 0 0-.5.5v13a.5.5 0 0 0 .5.5h13a.5.5 0 0 0 .5-.5V7a.5.5 0 0 0-.5-.5h-1.585A1.5 1.5 0 0 1 15 7.5H8a1.5 1.5 0 0 1-1.415-1zm3.972-2.333a.5.5 0 0 1-.472.333H8a.5.5 0 0 0-.5.5v1a.5.5 0 0 0 .5.5h7a.5.5 0 0 0 .5-.5V5a.5.5 0 0 0-.5-.5h-2.085a.5.5 0 0 1-.472-.333 1 1 0 0 0-1.886 0zm.382 10.808l3.89-3.89a.5.5 0 0 1 .707.708l-4.243 4.243a.5.5 0 0 1-.707 0l-2.122-2.122a.5.5 0 0 1 .708-.707l1.767 1.768z" fill="#979797"/></svg>